<svg xmlns="http://www.w3.org/2000/svg" width="320" height="220" viewBox="0 0 320 220">
  <defs>
    <linearGradient id="bg" x1="0" y1="0" x2="1" y2="1">
      <stop offset="0" stop-color="#112839"/>
      <stop offset="1" stop-color="#081720"/>
    </linearGradient>
    <radialGradient id="glow" cx="50%" cy="40%" r="60%">
      <stop offset="0" stop-color="#9b6843" stop-opacity=".22"/>
      <stop offset="1" stop-color="#9b6843" stop-opacity="0"/>
    </radialGradient>
    <filter id="shadow" x="-30%" y="-30%" width="160%" height="160%">
      <feDropShadow dx="0" dy="8" stdDeviation="8" flood-color="#000000" flood-opacity=".32"/>
    </filter>
  </defs>
  <rect x="7" y="7" width="306" height="206" rx="27" fill="url(#bg)" stroke="#9d6d49" stroke-width="4"/>
  <rect x="18" y="18" width="284" height="184" rx="21" fill="url(#glow)"/>
  <circle cx="70" cy="50" r="20" fill="#9d6d49" opacity=".08"/>
  <circle cx="257" cy="162" r="27" fill="#9d6d49" opacity=".07"/>
  <ellipse cx="160" cy="180" rx="86" ry="12" fill="#051019" opacity=".42"/>
  <g filter="url(#shadow)">
    
      <circle cx="212" cy="115" r="17" fill="#57311f"/>
      <circle cx="168" cy="119" r="22" fill="#6f3e28"/>
      <ellipse cx="122" cy="124" rx="30" ry="22" fill="#7f4a30"/>
      <circle cx="217" cy="111" r="2.2" fill="#f6f0e6"/>
      <path d="M215,98 q6,-18 17,-20 M205,98 q-2,-17 -12,-22" stroke="#57311f" stroke-width="3" fill="none" stroke-linecap="round"/>
      <path d="M155,131 l-28,20 M158,113 l-30,-10 M169,141 l-7,28 M177,99 l7,-22 M188,131 l26,18 M184,110 l30,-9" stroke="#5e3724" stroke-width="4" stroke-linecap="round"/>
    
  </g>
</svg>