<svg xmlns="http://www.w3.org/2000/svg" width="320" height="220" viewBox="0 0 320 220">
  <defs>
    <linearGradient id="bg" x1="0" y1="0" x2="1" y2="1">
      <stop offset="0" stop-color="#112839"/>
      <stop offset="1" stop-color="#081720"/>
    </linearGradient>
    <radialGradient id="glow" cx="50%" cy="40%" r="60%">
      <stop offset="0" stop-color="#96a1b0" stop-opacity=".22"/>
      <stop offset="1" stop-color="#96a1b0" stop-opacity="0"/>
    </radialGradient>
    <filter id="shadow" x="-30%" y="-30%" width="160%" height="160%">
      <feDropShadow dx="0" dy="8" stdDeviation="8" flood-color="#000000" flood-opacity=".32"/>
    </filter>
  </defs>
  <rect x="7" y="7" width="306" height="206" rx="27" fill="url(#bg)" stroke="#8793a2" stroke-width="4"/>
  <rect x="18" y="18" width="284" height="184" rx="21" fill="url(#glow)"/>
  <circle cx="70" cy="50" r="20" fill="#8793a2" opacity=".08"/>
  <circle cx="257" cy="162" r="27" fill="#8793a2" opacity=".07"/>
  <ellipse cx="160" cy="180" rx="86" ry="12" fill="#051019" opacity=".42"/>
  <g filter="url(#shadow)">
    
      <path d="M93,136 q28,-42 62,-12 q18,17 5,36 q19,-16 28,-16 q10,0 29,16 q-12,-19 5,-36 q34,-30 62,12 q-25,-1 -46,17 q-15,13 -33,11 q-18,-2 -45,-2 q-27,0 -45,2 q-18,2 -33,-11 q-21,-18 -46,-17 z" fill="#5e6670"/>
      <ellipse cx="160" cy="119" rx="22" ry="24" fill="#6d7480"/>
      <circle cx="152" cy="104" r="4.5" fill="#202830"/><circle cx="168" cy="104" r="4.5" fill="#202830"/>
      <path d="M153,125 q7,6 14,0" stroke="#202830" stroke-width="2.4" fill="none" stroke-linecap="round"/>
    
  </g>
</svg>