<svg xmlns="http://www.w3.org/2000/svg" width="320" height="220" viewBox="0 0 320 220">
  <defs>
    <linearGradient id="bg" x1="0" y1="0" x2="1" y2="1">
      <stop offset="0" stop-color="#112839"/>
      <stop offset="1" stop-color="#081720"/>
    </linearGradient>
    <radialGradient id="glow" cx="50%" cy="40%" r="60%">
      <stop offset="0" stop-color="#f2cf65" stop-opacity=".22"/>
      <stop offset="1" stop-color="#f2cf65" stop-opacity="0"/>
    </radialGradient>
    <filter id="shadow" x="-30%" y="-30%" width="160%" height="160%">
      <feDropShadow dx="0" dy="8" stdDeviation="8" flood-color="#000000" flood-opacity=".32"/>
    </filter>
  </defs>
  <rect x="7" y="7" width="306" height="206" rx="27" fill="url(#bg)" stroke="#f0c345" stroke-width="4"/>
  <rect x="18" y="18" width="284" height="184" rx="21" fill="url(#glow)"/>
  <circle cx="70" cy="50" r="20" fill="#f0c345" opacity=".08"/>
  <circle cx="257" cy="162" r="27" fill="#f0c345" opacity=".07"/>
  <ellipse cx="160" cy="180" rx="86" ry="12" fill="#051019" opacity=".42"/>
  <g filter="url(#shadow)">
    
      <ellipse cx="160" cy="125" rx="46" ry="31" fill="#f2c94c"/>
      <ellipse cx="136" cy="103" rx="18" ry="24" fill="#d9ecff" opacity=".82"/>
      <ellipse cx="186" cy="103" rx="18" ry="24" fill="#d9ecff" opacity=".82"/>
      <circle cx="209" cy="121" r="20" fill="#2d343d"/>
      <path d="M125,116 h72 M128,131 h65 M141,145 h41" stroke="#2c323a" stroke-width="6" stroke-linecap="round"/>
      <circle cx="214" cy="117" r="2.6" fill="#f8fbff"/>
      <path d="M223,122 l14,4 l-14,4 z" fill="#2d343d"/>
      <path d="M198,105 q8,-18 18,-18" stroke="#2d343d" stroke-width="3" fill="none" stroke-linecap="round"/>
      <path d="M207,104 q13,-18 24,-16" stroke="#2d343d" stroke-width="3" fill="none" stroke-linecap="round"/>
    
  </g>
</svg>