<svg xmlns="http://www.w3.org/2000/svg" width="320" height="220" viewBox="0 0 320 220">
  <defs>
    <linearGradient id="bg" x1="0" y1="0" x2="1" y2="1">
      <stop offset="0" stop-color="#112839"/>
      <stop offset="1" stop-color="#081720"/>
    </linearGradient>
    <radialGradient id="glow" cx="50%" cy="40%" r="60%">
      <stop offset="0" stop-color="#5aa769" stop-opacity=".22"/>
      <stop offset="1" stop-color="#5aa769" stop-opacity="0"/>
    </radialGradient>
    <filter id="shadow" x="-30%" y="-30%" width="160%" height="160%">
      <feDropShadow dx="0" dy="8" stdDeviation="8" flood-color="#000000" flood-opacity=".32"/>
    </filter>
  </defs>
  <rect x="7" y="7" width="306" height="206" rx="27" fill="url(#bg)" stroke="#4a8a56" stroke-width="4"/>
  <rect x="18" y="18" width="284" height="184" rx="21" fill="url(#glow)"/>
  <circle cx="70" cy="50" r="20" fill="#4a8a56" opacity=".08"/>
  <circle cx="257" cy="162" r="27" fill="#4a8a56" opacity=".07"/>
  <ellipse cx="160" cy="180" rx="86" ry="12" fill="#051019" opacity=".42"/>
  <g filter="url(#shadow)">
    
      <ellipse cx="160" cy="126" rx="42" ry="50" fill="#3a6b42"/>
      <path d="M160,77 v99" stroke="#203225" stroke-width="4.5"/>
      <ellipse cx="160" cy="92" rx="24" ry="22" fill="#294a31"/>
      <circle cx="166" cy="88" r="2.4" fill="#d9f0de"/>
      <path d="M146,80 q-13,-17 -28,-18 M174,80 q18,-17 32,-15" stroke="#294a31" stroke-width="3.5" fill="none" stroke-linecap="round"/>
      <path d="M132,117 l-28,-12 M134,133 l-31,4 M135,149 l-24,17 M188,117 l27,-10 M189,133 l28,4 M186,149 l23,18" stroke="#294a31" stroke-width="4" stroke-linecap="round"/>
      <path d="M128,108 q18,10 32,10 q16,0 33,-10" stroke="#517f58" stroke-width="3" fill="none" opacity=".75"/>
    
  </g>
</svg>