<svg xmlns="http://www.w3.org/2000/svg" width="320" height="220" viewBox="0 0 320 220">
  <defs>
    <linearGradient id="bg" x1="0" y1="0" x2="1" y2="1">
      <stop offset="0" stop-color="#112839"/>
      <stop offset="1" stop-color="#081720"/>
    </linearGradient>
    <radialGradient id="glow" cx="50%" cy="40%" r="60%">
      <stop offset="0" stop-color="#f08f65" stop-opacity=".22"/>
      <stop offset="1" stop-color="#f08f65" stop-opacity="0"/>
    </radialGradient>
    <filter id="shadow" x="-30%" y="-30%" width="160%" height="160%">
      <feDropShadow dx="0" dy="8" stdDeviation="8" flood-color="#000000" flood-opacity=".32"/>
    </filter>
  </defs>
  <rect x="7" y="7" width="306" height="206" rx="27" fill="url(#bg)" stroke="#ec865d" stroke-width="4"/>
  <rect x="18" y="18" width="284" height="184" rx="21" fill="url(#glow)"/>
  <circle cx="70" cy="50" r="20" fill="#ec865d" opacity=".08"/>
  <circle cx="257" cy="162" r="27" fill="#ec865d" opacity=".07"/>
  <ellipse cx="160" cy="180" rx="86" ry="12" fill="#051019" opacity=".42"/>
  <g filter="url(#shadow)">
    
      <ellipse cx="160" cy="127" rx="45" ry="30" fill="#da6c42"/>
      <circle cx="143" cy="100" r="4.5" fill="#ffffff"/><circle cx="177" cy="100" r="4.5" fill="#ffffff"/>
      <circle cx="143" cy="100" r="2.2" fill="#1d2430"/><circle cx="177" cy="100" r="2.2" fill="#1d2430"/>
      <path d="M123,124 l-32,-18 q-4,18 8,29 z" fill="#c65931"/>
      <path d="M197,124 l32,-18 q4,18 -8,29 z" fill="#c65931"/>
      <path d="M124,144 l-21,17 M137,148 l-12,21 M183,148 l14,21 M197,143 l20,18" stroke="#c65931" stroke-width="5" stroke-linecap="round"/>
      <path d="M149,134 q11,6 22,0" stroke="#8e341f" stroke-width="2.4" fill="none" stroke-linecap="round"/>
    
  </g>
</svg>