<svg xmlns="http://www.w3.org/2000/svg" width="320" height="220" viewBox="0 0 320 220">
  <defs>
    <linearGradient id="bg" x1="0" y1="0" x2="1" y2="1">
      <stop offset="0" stop-color="#112839"/>
      <stop offset="1" stop-color="#081720"/>
    </linearGradient>
    <radialGradient id="glow" cx="50%" cy="40%" r="60%">
      <stop offset="0" stop-color="#8fcb5b" stop-opacity=".22"/>
      <stop offset="1" stop-color="#8fcb5b" stop-opacity="0"/>
    </radialGradient>
    <filter id="shadow" x="-30%" y="-30%" width="160%" height="160%">
      <feDropShadow dx="0" dy="8" stdDeviation="8" flood-color="#000000" flood-opacity=".32"/>
    </filter>
  </defs>
  <rect x="7" y="7" width="306" height="206" rx="27" fill="url(#bg)" stroke="#85b357" stroke-width="4"/>
  <rect x="18" y="18" width="284" height="184" rx="21" fill="url(#glow)"/>
  <circle cx="70" cy="50" r="20" fill="#85b357" opacity=".08"/>
  <circle cx="257" cy="162" r="27" fill="#85b357" opacity=".07"/>
  <ellipse cx="160" cy="180" rx="86" ry="12" fill="#051019" opacity=".42"/>
  <g filter="url(#shadow)">
    
      <ellipse cx="160" cy="126" rx="36" ry="22" fill="#79a44c"/>
      <circle cx="199" cy="120" r="17" fill="#65893e"/>
      <circle cx="203" cy="116" r="2.2" fill="#203020"/>
      <path d="M171,116 l35,-22" stroke="#6a9142" stroke-width="5" stroke-linecap="round"/>
      <path d="M170,136 l36,28" stroke="#6a9142" stroke-width="5" stroke-linecap="round"/>
      <path d="M148,112 l-24,-24 M144,125 l-34,0 M148,138 l-22,20" stroke="#64883f" stroke-width="4" stroke-linecap="round"/>
      <path d="M193,105 q10,-24 23,-30 M200,104 q18,-18 36,-18" stroke="#64883f" stroke-width="3" fill="none" stroke-linecap="round"/>
      <path d="M182,142 q18,26 14,38" stroke="#64883f" stroke-width="4" fill="none" stroke-linecap="round"/>
      <path d="M178,140 q-6,24 -20,34" stroke="#64883f" stroke-width="4" fill="none" stroke-linecap="round"/>
    
  </g>
</svg>