<svg xmlns="http://www.w3.org/2000/svg" width="320" height="220" viewBox="0 0 320 220">
  <defs>
    <linearGradient id="bg" x1="0" y1="0" x2="1" y2="1">
      <stop offset="0" stop-color="#112839"/>
      <stop offset="1" stop-color="#081720"/>
    </linearGradient>
    <radialGradient id="glow" cx="50%" cy="40%" r="60%">
      <stop offset="0" stop-color="#8ac96c" stop-opacity=".22"/>
      <stop offset="1" stop-color="#8ac96c" stop-opacity="0"/>
    </radialGradient>
    <filter id="shadow" x="-30%" y="-30%" width="160%" height="160%">
      <feDropShadow dx="0" dy="8" stdDeviation="8" flood-color="#000000" flood-opacity=".32"/>
    </filter>
  </defs>
  <rect x="7" y="7" width="306" height="206" rx="27" fill="url(#bg)" stroke="#7ab261" stroke-width="4"/>
  <rect x="18" y="18" width="284" height="184" rx="21" fill="url(#glow)"/>
  <circle cx="70" cy="50" r="20" fill="#7ab261" opacity=".08"/>
  <circle cx="257" cy="162" r="27" fill="#7ab261" opacity=".07"/>
  <ellipse cx="160" cy="180" rx="86" ry="12" fill="#051019" opacity=".42"/>
  <g filter="url(#shadow)">
    
      <rect x="86" y="112" width="126" height="28" rx="14" fill="#5d8f48"/>
      <ellipse cx="223" cy="126" rx="30" ry="18" fill="#5d8f48"/>
      <path d="M86,126 q-28,-8 -38,-22 q-4,16 12,24 q-12,7 -16,20 q20,-4 42,-16" fill="#6ba554"/>
      <path d="M212,119 h31 l14,8 l-14,8 h-31 z" fill="#5d8f48"/>
      <path d="M229,121 l8,-7 l7,7 M229,133 l8,7 l7,-7" fill="#eef3ee"/>
      <circle cx="226" cy="121" r="2.4" fill="#1b261b"/>
      <path d="M126,140 l-12,17 M146,140 l-12,17 M175,140 l12,17 M194,140 l12,17" stroke="#4e7d3d" stroke-width="5" stroke-linecap="round"/>
      <circle cx="124" cy="122" r="3" fill="#86c26e" opacity=".85"/><circle cx="155" cy="123" r="3" fill="#86c26e" opacity=".85"/><circle cx="182" cy="124" r="3" fill="#86c26e" opacity=".85"/>
    
  </g>
</svg>