<svg xmlns="http://www.w3.org/2000/svg" width="320" height="220" viewBox="0 0 320 220">
  <defs>
    <linearGradient id="bg" x1="0" y1="0" x2="1" y2="1">
      <stop offset="0" stop-color="#112839"/>
      <stop offset="1" stop-color="#081720"/>
    </linearGradient>
    <radialGradient id="glow" cx="50%" cy="40%" r="60%">
      <stop offset="0" stop-color="#95e09a" stop-opacity=".22"/>
      <stop offset="1" stop-color="#95e09a" stop-opacity="0"/>
    </radialGradient>
    <filter id="shadow" x="-30%" y="-30%" width="160%" height="160%">
      <feDropShadow dx="0" dy="8" stdDeviation="8" flood-color="#000000" flood-opacity=".32"/>
    </filter>
  </defs>
  <rect x="7" y="7" width="306" height="206" rx="27" fill="url(#bg)" stroke="#84d58a" stroke-width="4"/>
  <rect x="18" y="18" width="284" height="184" rx="21" fill="url(#glow)"/>
  <circle cx="70" cy="50" r="20" fill="#84d58a" opacity=".08"/>
  <circle cx="257" cy="162" r="27" fill="#84d58a" opacity=".07"/>
  <ellipse cx="160" cy="180" rx="86" ry="12" fill="#051019" opacity=".42"/>
  <g filter="url(#shadow)">
    
      <path d="M97,142 q10,-48 56,-61 q36,-10 66,7 q18,10 25,30 q8,22 -11,31 q-18,9 -41,-4 q-8,22 -25,31 q-18,8 -32,-2 q-11,-8 -9,-20 q-16,9 -29,7 q-8,-1 -8,-9 q0,-7 8,-10 z" fill="#6dbd73"/>
      <path d="M232,112 q22,-13 42,-8 q9,2 11,10 q2,8 -7,12 q-9,4 -20,-1" fill="#6dbd73"/>
      <circle cx="214" cy="103" r="2.4" fill="#203021"/>
      <path d="M223,109 q7,5 13,1" stroke="#203021" stroke-width="2" fill="none" stroke-linecap="round"/>
      <path d="M122,153 l-10,26 M143,154 l-4,26 M183,152 l11,26 M201,146 l14,21" stroke="#4d9c55" stroke-width="6" stroke-linecap="round"/>
      <path d="M140,84 l10,-13 l8,13 M160,80 l10,-13 l8,13 M179,84 l10,-13 l8,13" fill="#4f8d53"/>
    
  </g>
</svg>