<svg xmlns="http://www.w3.org/2000/svg" width="320" height="220" viewBox="0 0 320 220">
  <defs>
    <linearGradient id="bg" x1="0" y1="0" x2="1" y2="1">
      <stop offset="0" stop-color="#112839"/>
      <stop offset="1" stop-color="#081720"/>
    </linearGradient>
    <radialGradient id="glow" cx="50%" cy="40%" r="60%">
      <stop offset="0" stop-color="#95c9eb" stop-opacity=".22"/>
      <stop offset="1" stop-color="#95c9eb" stop-opacity="0"/>
    </radialGradient>
    <filter id="shadow" x="-30%" y="-30%" width="160%" height="160%">
      <feDropShadow dx="0" dy="8" stdDeviation="8" flood-color="#000000" flood-opacity=".32"/>
    </filter>
  </defs>
  <rect x="7" y="7" width="306" height="206" rx="27" fill="url(#bg)" stroke="#79afd1" stroke-width="4"/>
  <rect x="18" y="18" width="284" height="184" rx="21" fill="url(#glow)"/>
  <circle cx="70" cy="50" r="20" fill="#79afd1" opacity=".08"/>
  <circle cx="257" cy="162" r="27" fill="#79afd1" opacity=".07"/>
  <ellipse cx="160" cy="180" rx="86" ry="12" fill="#051019" opacity=".42"/>
  <g filter="url(#shadow)">
    
      <path d="M87,130 q42,-45 102,-39 q20,2 38,15 q26,18 43,19 q-16,12 -33,11 q-10,17 -30,22 q-40,8 -78,-10 q-18,-9 -42,-18 q9,-3 0,0 z" fill="#89b7d6"/>
      <path d="M152,93 l16,-28 l16,27" fill="#78a8cb"/>
      <path d="M171,136 l18,29 l-31,-14" fill="#78a8cb"/>
      <path d="M108,128 q-23,4 -30,22" stroke="#89b7d6" stroke-width="8" fill="none" stroke-linecap="round"/>
      <circle cx="207" cy="112" r="2.6" fill="#1e2d3c"/>
      <path d="M216,120 q10,5 18,0" stroke="#1e2d3c" stroke-width="2.2" fill="none" stroke-linecap="round"/>
    
  </g>
</svg>