<svg xmlns="http://www.w3.org/2000/svg" width="320" height="220" viewBox="0 0 320 220">
  <defs>
    <linearGradient id="bg" x1="0" y1="0" x2="1" y2="1">
      <stop offset="0" stop-color="#112839"/>
      <stop offset="1" stop-color="#081720"/>
    </linearGradient>
    <radialGradient id="glow" cx="50%" cy="40%" r="60%">
      <stop offset="0" stop-color="#9ab0d7" stop-opacity=".22"/>
      <stop offset="1" stop-color="#9ab0d7" stop-opacity="0"/>
    </radialGradient>
    <filter id="shadow" x="-30%" y="-30%" width="160%" height="160%">
      <feDropShadow dx="0" dy="8" stdDeviation="8" flood-color="#000000" flood-opacity=".32"/>
    </filter>
  </defs>
  <rect x="7" y="7" width="306" height="206" rx="27" fill="url(#bg)" stroke="#8aa0c4" stroke-width="4"/>
  <rect x="18" y="18" width="284" height="184" rx="21" fill="url(#glow)"/>
  <circle cx="70" cy="50" r="20" fill="#8aa0c4" opacity=".08"/>
  <circle cx="257" cy="162" r="27" fill="#8aa0c4" opacity=".07"/>
  <ellipse cx="160" cy="180" rx="86" ry="12" fill="#051019" opacity=".42"/>
  <g filter="url(#shadow)">
    
      <ellipse cx="150" cy="128" rx="58" ry="43" fill="#8e98a5"/>
      <circle cx="222" cy="108" r="29" fill="#8e98a5"/>
      <ellipse cx="201" cy="103" rx="20" ry="28" fill="#aab1bc"/>
      <ellipse cx="211" cy="106" rx="18" ry="26" fill="#c6cad2" opacity=".9"/>
      <path d="M238,117 q18,26 -2,48 q-6,7 -5,12" stroke="#8e98a5" stroke-width="15" fill="none" stroke-linecap="round"/>
      <path d="M110,122 q-20,-15 -18,-32" stroke="#8e98a5" stroke-width="8" fill="none" stroke-linecap="round"/>
      <circle cx="228" cy="103" r="3" fill="#1d2630"/>
      <path d="M241,127 l10,11" stroke="#f1e8cf" stroke-width="4" stroke-linecap="round"/>
      <path d="M236,129 l6,14" stroke="#f1e8cf" stroke-width="4" stroke-linecap="round"/>
      <rect x="112" y="146" width="14" height="35" rx="5" fill="#8e98a5"/>
      <rect x="140" y="146" width="14" height="35" rx="5" fill="#8e98a5"/>
      <rect x="177" y="146" width="14" height="35" rx="5" fill="#8e98a5"/>
      <rect x="202" y="146" width="14" height="35" rx="5" fill="#8e98a5"/>
    
  </g>
</svg>