<svg xmlns="http://www.w3.org/2000/svg" width="320" height="220" viewBox="0 0 320 220">
  <defs>
    <linearGradient id="bg" x1="0" y1="0" x2="1" y2="1">
      <stop offset="0" stop-color="#112839"/>
      <stop offset="1" stop-color="#081720"/>
    </linearGradient>
    <radialGradient id="glow" cx="50%" cy="40%" r="60%">
      <stop offset="0" stop-color="#f7bfd1" stop-opacity=".22"/>
      <stop offset="1" stop-color="#f7bfd1" stop-opacity="0"/>
    </radialGradient>
    <filter id="shadow" x="-30%" y="-30%" width="160%" height="160%">
      <feDropShadow dx="0" dy="8" stdDeviation="8" flood-color="#000000" flood-opacity=".32"/>
    </filter>
  </defs>
  <rect x="7" y="7" width="306" height="206" rx="27" fill="url(#bg)" stroke="#f7bfd1" stroke-width="4"/>
  <rect x="18" y="18" width="284" height="184" rx="21" fill="url(#glow)"/>
  <circle cx="70" cy="50" r="20" fill="#f7bfd1" opacity=".08"/>
  <circle cx="257" cy="162" r="27" fill="#f7bfd1" opacity=".07"/>
  <ellipse cx="160" cy="180" rx="86" ry="12" fill="#051019" opacity=".42"/>
  <g filter="url(#shadow)">
    
      
      <ellipse cx="144" cy="133" rx="44" ry="31" fill="#f394b5"/>
      <ellipse cx="139" cy="132" rx="24" ry="15" fill="#f7bfd1" opacity=".86"/>
      <path d="M170,120 q16,-36 20,-60" stroke="#f394b5" stroke-width="18" fill="none" stroke-linecap="round"/>
      <circle cx="200" cy="78" r="19" fill="#f394b5"/>
      
      <path d="M217,104 l20,6 l-20,7 z" fill="#1a2633"/>
      <circle cx="202" cy="95" r="2.5" fill="#1d2630"/>
      
          <path d="M145,154 l-6,28" stroke="#1a2633" stroke-width="3" stroke-linecap="round"/>
          <path d="M156,154 l2,28" stroke="#1a2633" stroke-width="3" stroke-linecap="round"/>
        
    
  </g>
</svg>