<svg xmlns="http://www.w3.org/2000/svg" width="320" height="220" viewBox="0 0 320 220">
  <defs>
    <linearGradient id="bg" x1="0" y1="0" x2="1" y2="1">
      <stop offset="0" stop-color="#112839"/>
      <stop offset="1" stop-color="#081720"/>
    </linearGradient>
    <radialGradient id="glow" cx="50%" cy="40%" r="60%">
      <stop offset="0" stop-color="#8ee995" stop-opacity=".22"/>
      <stop offset="1" stop-color="#8ee995" stop-opacity="0"/>
    </radialGradient>
    <filter id="shadow" x="-30%" y="-30%" width="160%" height="160%">
      <feDropShadow dx="0" dy="8" stdDeviation="8" flood-color="#000000" flood-opacity=".32"/>
    </filter>
  </defs>
  <rect x="7" y="7" width="306" height="206" rx="27" fill="url(#bg)" stroke="#70c876" stroke-width="4"/>
  <rect x="18" y="18" width="284" height="184" rx="21" fill="url(#glow)"/>
  <circle cx="70" cy="50" r="20" fill="#70c876" opacity=".08"/>
  <circle cx="257" cy="162" r="27" fill="#70c876" opacity=".07"/>
  <ellipse cx="160" cy="180" rx="86" ry="12" fill="#051019" opacity=".42"/>
  <g filter="url(#shadow)">
    
      <ellipse cx="160" cy="129" rx="52" ry="34" fill="#63b96a"/>
      <circle cx="136" cy="103" r="14" fill="#63b96a"/><circle cx="184" cy="103" r="14" fill="#63b96a"/>
      <circle cx="136" cy="103" r="6" fill="#f6fbf6"/><circle cx="184" cy="103" r="6" fill="#f6fbf6"/>
      <circle cx="136" cy="103" r="2.5" fill="#1b2a1b"/><circle cx="184" cy="103" r="2.5" fill="#1b2a1b"/>
      <path d="M142,132 q18,9 36,0" stroke="#2b6e34" stroke-width="3" fill="none" stroke-linecap="round"/>
      <path d="M125,146 l-18,20 M196,146 l18,20 M142,151 l-23,28 M178,151 l23,28" stroke="#4d9754" stroke-width="6" stroke-linecap="round"/>
    
  </g>
</svg>