<svg xmlns="http://www.w3.org/2000/svg" width="320" height="220" viewBox="0 0 320 220">
  <defs>
    <linearGradient id="bg" x1="0" y1="0" x2="1" y2="1">
      <stop offset="0" stop-color="#112839"/>
      <stop offset="1" stop-color="#081720"/>
    </linearGradient>
    <radialGradient id="glow" cx="50%" cy="40%" r="60%">
      <stop offset="0" stop-color="#e9c777" stop-opacity=".22"/>
      <stop offset="1" stop-color="#e9c777" stop-opacity="0"/>
    </radialGradient>
    <filter id="shadow" x="-30%" y="-30%" width="160%" height="160%">
      <feDropShadow dx="0" dy="8" stdDeviation="8" flood-color="#000000" flood-opacity=".32"/>
    </filter>
  </defs>
  <rect x="7" y="7" width="306" height="206" rx="27" fill="url(#bg)" stroke="#d39b3d" stroke-width="4"/>
  <rect x="18" y="18" width="284" height="184" rx="21" fill="url(#glow)"/>
  <circle cx="70" cy="50" r="20" fill="#d39b3d" opacity=".08"/>
  <circle cx="257" cy="162" r="27" fill="#d39b3d" opacity=".07"/>
  <ellipse cx="160" cy="180" rx="86" ry="12" fill="#051019" opacity=".42"/>
  <g filter="url(#shadow)">
    
      <ellipse cx="140" cy="134" rx="48" ry="31" fill="#d7b06a"/>
      <rect x="172" y="62" width="20" height="88" rx="10" fill="#d7b06a"/>
      <circle cx="205" cy="64" r="23" fill="#d7b06a"/>
      <circle cx="198" cy="39" r="4" fill="#8e5e2f"/>
      <circle cx="212" cy="38" r="4" fill="#8e5e2f"/>
      <path d="M196,41 l-4,-12 M213,40 l4,-12" stroke="#8e5e2f" stroke-width="3.5" stroke-linecap="round"/>
      <circle cx="212" cy="61" r="2.5" fill="#1d2630"/>
      <ellipse cx="220" cy="72" rx="12" ry="8" fill="#f0d9a8"/>
      <path d="M226,76 q4,4 8,0" stroke="#1d2630" stroke-width="2" fill="none" stroke-linecap="round"/>
      <rect x="108" y="148" width="10" height="33" rx="5" fill="#d7b06a"/>
      <rect x="132" y="148" width="10" height="33" rx="5" fill="#d7b06a"/>
      <rect x="154" y="148" width="10" height="33" rx="5" fill="#d7b06a"/>
      <rect x="172" y="148" width="10" height="33" rx="5" fill="#d7b06a"/>
      <path d="M92,129 q-22,-8 -18,-28" stroke="#d7b06a" stroke-width="7" fill="none" stroke-linecap="round"/>
      <circle cx="122" cy="123" r="6" fill="#8e5e2f"/>
      <circle cx="144" cy="111" r="5" fill="#8e5e2f"/>
      <circle cx="162" cy="126" r="5" fill="#8e5e2f"/>
      <circle cx="178" cy="114" r="4.5" fill="#8e5e2f"/>
      <circle cx="182" cy="86" r="4" fill="#8e5e2f"/>
      <circle cx="181" cy="103" r="4" fill="#8e5e2f"/>
      <circle cx="194" cy="72" r="4" fill="#8e5e2f"/>
    
  </g>
</svg>