<svg xmlns="http://www.w3.org/2000/svg" width="320" height="220" viewBox="0 0 320 220">
  <defs>
    <linearGradient id="bg" x1="0" y1="0" x2="1" y2="1">
      <stop offset="0" stop-color="#112839"/>
      <stop offset="1" stop-color="#081720"/>
    </linearGradient>
    <radialGradient id="glow" cx="50%" cy="40%" r="60%">
      <stop offset="0" stop-color="#ef6666" stop-opacity=".22"/>
      <stop offset="1" stop-color="#ef6666" stop-opacity="0"/>
    </radialGradient>
    <filter id="shadow" x="-30%" y="-30%" width="160%" height="160%">
      <feDropShadow dx="0" dy="8" stdDeviation="8" flood-color="#000000" flood-opacity=".32"/>
    </filter>
  </defs>
  <rect x="7" y="7" width="306" height="206" rx="27" fill="url(#bg)" stroke="#d84b4b" stroke-width="4"/>
  <rect x="18" y="18" width="284" height="184" rx="21" fill="url(#glow)"/>
  <circle cx="70" cy="50" r="20" fill="#d84b4b" opacity=".08"/>
  <circle cx="257" cy="162" r="27" fill="#d84b4b" opacity=".07"/>
  <ellipse cx="160" cy="180" rx="86" ry="12" fill="#051019" opacity=".42"/>
  <g filter="url(#shadow)">
    
      <ellipse cx="160" cy="126" rx="56" ry="42" fill="#d84040"/>
      <path d="M160,85 v83" stroke="#251f24" stroke-width="5"/>
      <ellipse cx="149" cy="116" rx="8" ry="8" fill="#201c20"/>
      <ellipse cx="178" cy="112" rx="7" ry="7" fill="#201c20"/>
      <ellipse cx="141" cy="138" rx="7" ry="7" fill="#201c20"/>
      <ellipse cx="180" cy="142" rx="8" ry="8" fill="#201c20"/>
      <circle cx="213" cy="120" r="20" fill="#1f232a"/>
      <circle cx="219" cy="116" r="2.5" fill="#f8fbff"/>
      <path d="M205,104 q8,-16 16,-18" stroke="#1f232a" stroke-width="3" fill="none" stroke-linecap="round"/>
      <path d="M214,103 q14,-16 23,-14" stroke="#1f232a" stroke-width="3" fill="none" stroke-linecap="round"/>
    
  </g>
</svg>