<svg xmlns="http://www.w3.org/2000/svg" width="320" height="220" viewBox="0 0 320 220">
  <defs>
    <linearGradient id="bg" x1="0" y1="0" x2="1" y2="1">
      <stop offset="0" stop-color="#112839"/>
      <stop offset="1" stop-color="#081720"/>
    </linearGradient>
    <radialGradient id="glow" cx="50%" cy="40%" r="60%">
      <stop offset="0" stop-color="#8c5723" stop-opacity=".22"/>
      <stop offset="1" stop-color="#8c5723" stop-opacity="0"/>
    </radialGradient>
    <filter id="shadow" x="-30%" y="-30%" width="160%" height="160%">
      <feDropShadow dx="0" dy="8" stdDeviation="8" flood-color="#000000" flood-opacity=".32"/>
    </filter>
  </defs>
  <rect x="7" y="7" width="306" height="206" rx="27" fill="url(#bg)" stroke="#8c5723" stroke-width="4"/>
  <rect x="18" y="18" width="284" height="184" rx="21" fill="url(#glow)"/>
  <circle cx="70" cy="50" r="20" fill="#8c5723" opacity=".08"/>
  <circle cx="257" cy="162" r="27" fill="#8c5723" opacity=".07"/>
  <ellipse cx="160" cy="180" rx="86" ry="12" fill="#051019" opacity=".42"/>
  <g filter="url(#shadow)">
    
      <path d="M93,124 q-34,-28 -10,-50 q22,5 19,28 q-2,16 12,28" stroke="#c58b3c" stroke-width="12" fill="none" stroke-linecap="round"/>
      <ellipse cx="145" cy="128" rx="50.0" ry="23.0" fill="#c58b3c"/>
      <rect x="190" y="106" width="20" height="28" rx="10" fill="#c58b3c"/>
      <ellipse cx="217" cy="110" rx="30" ry="28" fill="#8c5723"/>
      <circle cx="225" cy="102" r="24" fill="#c58b3c"/>
      
        <circle cx="215" cy="90" r="9" fill="#c58b3c"/>
        <circle cx="232" cy="90" r="9" fill="#c58b3c"/>
        
      
      <ellipse cx="237" cy="112" rx="15" ry="11" fill="#8c5723"/>
      
      <circle cx="231" cy="104" r="2.8" fill="#1d2630"/>
      <path d="M236,118 q6,5 12,0" stroke="#1d2630" stroke-width="2.3" fill="none" stroke-linecap="round"/>
      <rect x="120" y="145" width="12" height="35" rx="5" fill="#c58b3c"/>
      <rect x="145" y="145" width="12" height="35" rx="5" fill="#c58b3c"/>
      <rect x="176" y="145" width="12" height="35" rx="5" fill="#c58b3c"/>
      <rect x="202" y="145" width="12" height="35" rx="5" fill="#c58b3c"/>
      
    
  </g>
</svg>