<svg xmlns="http://www.w3.org/2000/svg" width="320" height="220" viewBox="0 0 320 220">
  <defs>
    <linearGradient id="bg" x1="0" y1="0" x2="1" y2="1">
      <stop offset="0" stop-color="#112839"/>
      <stop offset="1" stop-color="#081720"/>
    </linearGradient>
    <radialGradient id="glow" cx="50%" cy="40%" r="60%">
      <stop offset="0" stop-color="#90dc88" stop-opacity=".22"/>
      <stop offset="1" stop-color="#90dc88" stop-opacity="0"/>
    </radialGradient>
    <filter id="shadow" x="-30%" y="-30%" width="160%" height="160%">
      <feDropShadow dx="0" dy="8" stdDeviation="8" flood-color="#000000" flood-opacity=".32"/>
    </filter>
  </defs>
  <rect x="7" y="7" width="306" height="206" rx="27" fill="url(#bg)" stroke="#82c879" stroke-width="4"/>
  <rect x="18" y="18" width="284" height="184" rx="21" fill="url(#glow)"/>
  <circle cx="70" cy="50" r="20" fill="#82c879" opacity=".08"/>
  <circle cx="257" cy="162" r="27" fill="#82c879" opacity=".07"/>
  <ellipse cx="160" cy="180" rx="86" ry="12" fill="#051019" opacity=".42"/>
  <g filter="url(#shadow)">
    
      <ellipse cx="160" cy="124" rx="52" ry="24" fill="#73b36b"/>
      <circle cx="207" cy="115" r="16" fill="#6aa963"/>
      <path d="M110,125 q-28,0 -40,18" stroke="#73b36b" stroke-width="8" fill="none" stroke-linecap="round"/>
      <path d="M136,115 l-20,-19 M141,133 l-22,19 M181,115 l22,-20 M182,133 l22,19" stroke="#6aa963" stroke-width="6" stroke-linecap="round"/>
      <circle cx="210" cy="112" r="2.4" fill="#1d2a20"/>
      <path d="M219,118 q11,4 18,0" stroke="#c72f44" stroke-width="2" fill="none" stroke-linecap="round"/>
      <circle cx="132" cy="123" r="3.5" fill="#8ad480" opacity=".8"/><circle cx="155" cy="117" r="3.5" fill="#8ad480" opacity=".8"/><circle cx="175" cy="128" r="3.5" fill="#8ad480" opacity=".8"/>
    
  </g>
</svg>