<svg xmlns="http://www.w3.org/2000/svg" width="320" height="220" viewBox="0 0 320 220">
  <defs>
    <linearGradient id="bg" x1="0" y1="0" x2="1" y2="1">
      <stop offset="0" stop-color="#112839"/>
      <stop offset="1" stop-color="#081720"/>
    </linearGradient>
    <radialGradient id="glow" cx="50%" cy="40%" r="60%">
      <stop offset="0" stop-color="#cf6ee2" stop-opacity=".22"/>
      <stop offset="1" stop-color="#cf6ee2" stop-opacity="0"/>
    </radialGradient>
    <filter id="shadow" x="-30%" y="-30%" width="160%" height="160%">
      <feDropShadow dx="0" dy="8" stdDeviation="8" flood-color="#000000" flood-opacity=".32"/>
    </filter>
  </defs>
  <rect x="7" y="7" width="306" height="206" rx="27" fill="url(#bg)" stroke="#d673e3" stroke-width="4"/>
  <rect x="18" y="18" width="284" height="184" rx="21" fill="url(#glow)"/>
  <circle cx="70" cy="50" r="20" fill="#d673e3" opacity=".08"/>
  <circle cx="257" cy="162" r="27" fill="#d673e3" opacity=".07"/>
  <ellipse cx="160" cy="180" rx="86" ry="12" fill="#051019" opacity=".42"/>
  <g filter="url(#shadow)">
    
      <ellipse cx="160" cy="110" rx="45" ry="38" fill="#c45ad3"/>
      <path d="M120,138 q-16,20 -10,38" stroke="#b24ac2" stroke-width="10" fill="none" stroke-linecap="round"/><path d="M134,138 q-16,20 -4,38" stroke="#b24ac2" stroke-width="10" fill="none" stroke-linecap="round"/><path d="M148,138 q-16,20 2,38" stroke="#b24ac2" stroke-width="10" fill="none" stroke-linecap="round"/><path d="M162,138 q-16,20 8,38" stroke="#b24ac2" stroke-width="10" fill="none" stroke-linecap="round"/><path d="M176,138 q-16,20 14,38" stroke="#b24ac2" stroke-width="10" fill="none" stroke-linecap="round"/><path d="M190,138 q-16,20 20,38" stroke="#b24ac2" stroke-width="10" fill="none" stroke-linecap="round"/>
      <circle cx="145" cy="106" r="4.5" fill="#ffffff"/><circle cx="175" cy="106" r="4.5" fill="#ffffff"/>
      <circle cx="146" cy="107" r="2.4" fill="#1d2430"/><circle cx="176" cy="107" r="2.4" fill="#1d2430"/>
      <path d="M148,125 q12,8 24,0" stroke="#8d2a98" stroke-width="3" fill="none" stroke-linecap="round"/>
    
  </g>
</svg>