<svg xmlns="http://www.w3.org/2000/svg" width="320" height="220" viewBox="0 0 320 220">
  <defs>
    <linearGradient id="bg" x1="0" y1="0" x2="1" y2="1">
      <stop offset="0" stop-color="#112839"/>
      <stop offset="1" stop-color="#081720"/>
    </linearGradient>
    <radialGradient id="glow" cx="50%" cy="40%" r="60%">
      <stop offset="0" stop-color="#c4a589" stop-opacity=".22"/>
      <stop offset="1" stop-color="#c4a589" stop-opacity="0"/>
    </radialGradient>
    <filter id="shadow" x="-30%" y="-30%" width="160%" height="160%">
      <feDropShadow dx="0" dy="8" stdDeviation="8" flood-color="#000000" flood-opacity=".32"/>
    </filter>
  </defs>
  <rect x="7" y="7" width="306" height="206" rx="27" fill="url(#bg)" stroke="#c4a589" stroke-width="4"/>
  <rect x="18" y="18" width="284" height="184" rx="21" fill="url(#glow)"/>
  <circle cx="70" cy="50" r="20" fill="#c4a589" opacity=".08"/>
  <circle cx="257" cy="162" r="27" fill="#c4a589" opacity=".07"/>
  <ellipse cx="160" cy="180" rx="86" ry="12" fill="#051019" opacity=".42"/>
  <g filter="url(#shadow)">
    
      
      <ellipse cx="160" cy="124" rx="36" ry="52" fill="#8a6b53"/>
      <ellipse cx="145" cy="127" rx="14" ry="28" fill="#6b4f3f" opacity=".85"/>
      <rect x="148" y="72" width="24" height="46" rx="12" fill="#8a6b53"/>
      <circle cx="160" cy="68" r="25" fill="#8a6b53"/>
      
      <path d="M217,104 l20,6 l-20,7 z" fill="#f0bf53"/>
      <circle cx="202" cy="95" r="2.5" fill="#1d2630"/>
      
          <path d="M152,170 l-5,14" stroke="#d49c41" stroke-width="3" stroke-linecap="round"/>
          <path d="M168,170 l5,14" stroke="#d49c41" stroke-width="3" stroke-linecap="round"/>
        
    
  </g>
</svg>