<svg xmlns="http://www.w3.org/2000/svg" width="320" height="220" viewBox="0 0 320 220">
  <defs>
    <linearGradient id="bg" x1="0" y1="0" x2="1" y2="1">
      <stop offset="0" stop-color="#112839"/>
      <stop offset="1" stop-color="#081720"/>
    </linearGradient>
    <radialGradient id="glow" cx="50%" cy="40%" r="60%">
      <stop offset="0" stop-color="#3fba73" stop-opacity=".22"/>
      <stop offset="1" stop-color="#3fba73" stop-opacity="0"/>
    </radialGradient>
    <filter id="shadow" x="-30%" y="-30%" width="160%" height="160%">
      <feDropShadow dx="0" dy="8" stdDeviation="8" flood-color="#000000" flood-opacity=".32"/>
    </filter>
  </defs>
  <rect x="7" y="7" width="306" height="206" rx="27" fill="url(#bg)" stroke="#3fba73" stroke-width="4"/>
  <rect x="18" y="18" width="284" height="184" rx="21" fill="url(#glow)"/>
  <circle cx="70" cy="50" r="20" fill="#3fba73" opacity=".08"/>
  <circle cx="257" cy="162" r="27" fill="#3fba73" opacity=".07"/>
  <ellipse cx="160" cy="180" rx="86" ry="12" fill="#051019" opacity=".42"/>
  <g filter="url(#shadow)">
    
      <ellipse cx="118" cy="112" rx="13" ry="36" fill="#3fba73" opacity=".8" transform="rotate(-48 118 112)"/><ellipse cx="118" cy="112" rx="13" ry="36" fill="#3fba73" opacity=".8" transform="rotate(-24 118 112)"/><ellipse cx="118" cy="112" rx="13" ry="36" fill="#3fba73" opacity=".8" transform="rotate(0 118 112)"/><ellipse cx="118" cy="112" rx="13" ry="36" fill="#3fba73" opacity=".8" transform="rotate(24 118 112)"/><ellipse cx="118" cy="112" rx="13" ry="36" fill="#3fba73" opacity=".8" transform="rotate(48 118 112)"/>
      <ellipse cx="150" cy="128" rx="48" ry="34" fill="#1f6b9d"/>
      <path d="M127,113 q25,-22 42,10 q-8,26 -33,28 q-16,-12 -9,-38" fill="#3fba73" opacity=".86"/>
      
      <circle cx="198" cy="98" r="21" fill="#1f6b9d"/>
      <path d="M191,82 l-3,-12 M198,80 l2,-15 M205,82 l8,-12" stroke="#3fba73" stroke-width="3.2" stroke-linecap="round"/>
      <path d="M217,104 l20,6 l-20,7 z" fill="#f1bd4e"/>
      <circle cx="202" cy="95" r="2.5" fill="#1d2630"/>
      
    
  </g>
</svg>