<svg xmlns="http://www.w3.org/2000/svg" width="320" height="220" viewBox="0 0 320 220">
  <defs>
    <linearGradient id="bg" x1="0" y1="0" x2="1" y2="1">
      <stop offset="0" stop-color="#112839"/>
      <stop offset="1" stop-color="#081720"/>
    </linearGradient>
    <radialGradient id="glow" cx="50%" cy="40%" r="60%">
      <stop offset="0" stop-color="#e68ca2" stop-opacity=".22"/>
      <stop offset="1" stop-color="#e68ca2" stop-opacity="0"/>
    </radialGradient>
    <filter id="shadow" x="-30%" y="-30%" width="160%" height="160%">
      <feDropShadow dx="0" dy="8" stdDeviation="8" flood-color="#000000" flood-opacity=".32"/>
    </filter>
  </defs>
  <rect x="7" y="7" width="306" height="206" rx="27" fill="url(#bg)" stroke="#e68ca2" stroke-width="4"/>
  <rect x="18" y="18" width="284" height="184" rx="21" fill="url(#glow)"/>
  <circle cx="70" cy="50" r="20" fill="#e68ca2" opacity=".08"/>
  <circle cx="257" cy="162" r="27" fill="#e68ca2" opacity=".07"/>
  <ellipse cx="160" cy="180" rx="86" ry="12" fill="#051019" opacity=".42"/>
  <g filter="url(#shadow)">
    
      <path d="M95,126 q-22,-10 -18,-25" stroke="#efb2c0" stroke-width="8" fill="none" stroke-linecap="round"/>
      <ellipse cx="145" cy="128" rx="50.0" ry="23.0" fill="#efb2c0"/>
      <rect x="190" y="106" width="20" height="28" rx="10" fill="#efb2c0"/>
      
      <circle cx="225" cy="102" r="24" fill="#efb2c0"/>
      
        <path d="M209,88 l8,-18 l8,15 z" fill="#efb2c0"/>
        <path d="M226,88 l8,-18 l8,15 z" fill="#efb2c0"/>
        
      
      <ellipse cx="237" cy="112" rx="15" ry="11" fill="#e68ca2"/>
      <ellipse cx="244" cy="114" rx="12" ry="10" fill="#e68ca2"/><circle cx="239" cy="114" r="1.8" fill="#1a232c"/><circle cx="247" cy="114" r="1.8" fill="#1a232c"/>
      <circle cx="231" cy="104" r="2.8" fill="#1d2630"/>
      <path d="M236,118 q6,5 12,0" stroke="#1d2630" stroke-width="2.3" fill="none" stroke-linecap="round"/>
      <rect x="120" y="145" width="12" height="35" rx="5" fill="#efb2c0"/>
      <rect x="145" y="145" width="12" height="35" rx="5" fill="#efb2c0"/>
      <rect x="176" y="145" width="12" height="35" rx="5" fill="#efb2c0"/>
      <rect x="202" y="145" width="12" height="35" rx="5" fill="#efb2c0"/>
      
    
  </g>
</svg>