<svg xmlns="http://www.w3.org/2000/svg" width="320" height="220" viewBox="0 0 320 220">
  <defs>
    <linearGradient id="bg" x1="0" y1="0" x2="1" y2="1">
      <stop offset="0" stop-color="#112839"/>
      <stop offset="1" stop-color="#081720"/>
    </linearGradient>
    <radialGradient id="glow" cx="50%" cy="40%" r="60%">
      <stop offset="0" stop-color="#f4cc88" stop-opacity=".22"/>
      <stop offset="1" stop-color="#f4cc88" stop-opacity="0"/>
    </radialGradient>
    <filter id="shadow" x="-30%" y="-30%" width="160%" height="160%">
      <feDropShadow dx="0" dy="8" stdDeviation="8" flood-color="#000000" flood-opacity=".32"/>
    </filter>
  </defs>
  <rect x="7" y="7" width="306" height="206" rx="27" fill="url(#bg)" stroke="#f0b25e" stroke-width="4"/>
  <rect x="18" y="18" width="284" height="184" rx="21" fill="url(#glow)"/>
  <circle cx="70" cy="50" r="20" fill="#f0b25e" opacity=".08"/>
  <circle cx="257" cy="162" r="27" fill="#f0b25e" opacity=".07"/>
  <ellipse cx="160" cy="180" rx="86" ry="12" fill="#051019" opacity=".42"/>
  <g filter="url(#shadow)">
    
          <circle cx="154" cy="124" r="42" fill="#f0c57f"/>
          <polygon points="196,124 227,106 227,142" fill="#d69e4c"/>
          <circle cx="165" cy="116" r="3" fill="#25303c"/>
          <circle cx="129" cy="98" r="2.4" fill="#c48a37"/><circle cx="118" cy="114" r="2.4" fill="#c48a37"/>
          <circle cx="121" cy="132" r="2.4" fill="#c48a37"/><circle cx="136" cy="146" r="2.4" fill="#c48a37"/>
          <path d="M147,110 q8,-6 16,0" stroke="#b57f34" stroke-width="3" fill="none" stroke-linecap="round"/>
          <path d="M128,126 l-14,0" stroke="#b57f34" stroke-width="3" stroke-linecap="round"/>
          <path d="M148,86 l7,-16 l7,16" fill="#d69e4c"/>
        
  </g>
</svg>