<svg xmlns="http://www.w3.org/2000/svg" width="320" height="220" viewBox="0 0 320 220">
  <defs>
    <linearGradient id="bg" x1="0" y1="0" x2="1" y2="1">
      <stop offset="0" stop-color="#112839"/>
      <stop offset="1" stop-color="#081720"/>
    </linearGradient>
    <radialGradient id="glow" cx="50%" cy="40%" r="60%">
      <stop offset="0" stop-color="#91a7bf" stop-opacity=".22"/>
      <stop offset="1" stop-color="#91a7bf" stop-opacity="0"/>
    </radialGradient>
    <filter id="shadow" x="-30%" y="-30%" width="160%" height="160%">
      <feDropShadow dx="0" dy="8" stdDeviation="8" flood-color="#000000" flood-opacity=".32"/>
    </filter>
  </defs>
  <rect x="7" y="7" width="306" height="206" rx="27" fill="url(#bg)" stroke="#8aa3bd" stroke-width="4"/>
  <rect x="18" y="18" width="284" height="184" rx="21" fill="url(#glow)"/>
  <circle cx="70" cy="50" r="20" fill="#8aa3bd" opacity=".08"/>
  <circle cx="257" cy="162" r="27" fill="#8aa3bd" opacity=".07"/>
  <ellipse cx="160" cy="180" rx="86" ry="12" fill="#051019" opacity=".42"/>
  <g filter="url(#shadow)">
    
      <path d="M88,131 q56,-42 124,-12 q21,-5 48,4 q-14,7 -16,17 q-20,3 -34,-3 q-57,28 -120,11 q15,-15 14,-17 q0,-2 -16,0 z" fill="#7b8b9c"/>
      <polygon points="146,99 170,62 186,104" fill="#6f8194"/>
      <polygon points="177,137 197,171 163,151" fill="#6f8194"/>
      <circle cx="204" cy="116" r="2.8" fill="#182330"/>
      <path d="M212,127 q12,6 23,0" stroke="#182330" stroke-width="2.2" fill="none" stroke-linecap="round"/>
    
  </g>
</svg>