<svg xmlns="http://www.w3.org/2000/svg" width="320" height="220" viewBox="0 0 320 220">
  <defs>
    <linearGradient id="bg" x1="0" y1="0" x2="1" y2="1">
      <stop offset="0" stop-color="#112839"/>
      <stop offset="1" stop-color="#081720"/>
    </linearGradient>
    <radialGradient id="glow" cx="50%" cy="40%" r="60%">
      <stop offset="0" stop-color="#4f2b18" stop-opacity=".22"/>
      <stop offset="1" stop-color="#4f2b18" stop-opacity="0"/>
    </radialGradient>
    <filter id="shadow" x="-30%" y="-30%" width="160%" height="160%">
      <feDropShadow dx="0" dy="8" stdDeviation="8" flood-color="#000000" flood-opacity=".32"/>
    </filter>
  </defs>
  <rect x="7" y="7" width="306" height="206" rx="27" fill="url(#bg)" stroke="#4f2b18" stroke-width="4"/>
  <rect x="18" y="18" width="284" height="184" rx="21" fill="url(#glow)"/>
  <circle cx="70" cy="50" r="20" fill="#4f2b18" opacity=".08"/>
  <circle cx="257" cy="162" r="27" fill="#4f2b18" opacity=".07"/>
  <ellipse cx="160" cy="180" rx="86" ry="12" fill="#051019" opacity=".42"/>
  <g filter="url(#shadow)">
    
      <path d="M94,128 q-42,-8 -46,-32 q-1,-10 8,-14" stroke="#e09a44" stroke-width="8" fill="none" stroke-linecap="round"/>
      <ellipse cx="145" cy="128" rx="50.0" ry="23.0" fill="#e09a44"/>
      <rect x="190" y="106" width="20" height="28" rx="10" fill="#e09a44"/>
      
      <circle cx="225" cy="102" r="24" fill="#e09a44"/>
      
        <path d="M209,88 l8,-18 l8,15 z" fill="#e09a44"/>
        <path d="M226,88 l8,-18 l8,15 z" fill="#e09a44"/>
        
      
      <ellipse cx="237" cy="112" rx="15" ry="11" fill="#4f2b18"/>
      
      <circle cx="231" cy="104" r="2.8" fill="#1d2630"/>
      <path d="M236,118 q6,5 12,0" stroke="#1d2630" stroke-width="2.3" fill="none" stroke-linecap="round"/>
      <rect x="120" y="145" width="12" height="35" rx="5" fill="#e09a44"/>
      <rect x="145" y="145" width="12" height="35" rx="5" fill="#e09a44"/>
      <rect x="176" y="145" width="12" height="35" rx="5" fill="#e09a44"/>
      <rect x="202" y="145" width="12" height="35" rx="5" fill="#e09a44"/>
      <path d="M130,104 l-10,20 M139,106 l-10,21" stroke="#4f2b18" stroke-width="4" stroke-linecap="round"/><path d="M148,104 l-10,20 M157,106 l-10,21" stroke="#4f2b18" stroke-width="4" stroke-linecap="round"/><path d="M166,104 l-10,20 M175,106 l-10,21" stroke="#4f2b18" stroke-width="4" stroke-linecap="round"/><path d="M184,104 l-10,20 M193,106 l-10,21" stroke="#4f2b18" stroke-width="4" stroke-linecap="round"/>
    
  </g>
</svg>