<svg xmlns="http://www.w3.org/2000/svg" width="320" height="220" viewBox="0 0 320 220">
  <defs>
    <linearGradient id="bg" x1="0" y1="0" x2="1" y2="1">
      <stop offset="0" stop-color="#112839"/>
      <stop offset="1" stop-color="#081720"/>
    </linearGradient>
    <radialGradient id="glow" cx="50%" cy="40%" r="60%">
      <stop offset="0" stop-color="#325dc0" stop-opacity=".22"/>
      <stop offset="1" stop-color="#325dc0" stop-opacity="0"/>
    </radialGradient>
    <filter id="shadow" x="-30%" y="-30%" width="160%" height="160%">
      <feDropShadow dx="0" dy="8" stdDeviation="8" flood-color="#000000" flood-opacity=".32"/>
    </filter>
  </defs>
  <rect x="7" y="7" width="306" height="206" rx="27" fill="url(#bg)" stroke="#325dc0" stroke-width="4"/>
  <rect x="18" y="18" width="284" height="184" rx="21" fill="url(#glow)"/>
  <circle cx="70" cy="50" r="20" fill="#325dc0" opacity=".08"/>
  <circle cx="257" cy="162" r="27" fill="#325dc0" opacity=".07"/>
  <ellipse cx="160" cy="180" rx="86" ry="12" fill="#051019" opacity=".42"/>
  <g filter="url(#shadow)">
    
      <ellipse cx="150" cy="124" rx="48" ry="38" fill="#f2a146"/>
      <polygon points="196,124 234,97 234,151" fill="#325dc0"/>
      <polygon points="141,89 160,70 176,92" fill="#325dc0"/>
      <polygon points="142,159 160,176 176,157" fill="#325dc0"/>
      <circle cx="171" cy="116" r="3" fill="#173042"/>
      <path d="M178,127 q10,6 20,0" stroke="#173042" stroke-width="2.6" fill="none" stroke-linecap="round"/>
      <path d="M111,122 q24,-10 53,-10 q27,0 48,10" stroke="#ffffff" opacity=".16" stroke-width="4" fill="none"/>
    
  </g>
</svg>