<svg xmlns="http://www.w3.org/2000/svg" width="320" height="220" viewBox="0 0 320 220">
  <defs>
    <linearGradient id="bg" x1="0" y1="0" x2="1" y2="1">
      <stop offset="0" stop-color="#112839"/>
      <stop offset="1" stop-color="#081720"/>
    </linearGradient>
    <radialGradient id="glow" cx="50%" cy="40%" r="60%">
      <stop offset="0" stop-color="#a1d089" stop-opacity=".22"/>
      <stop offset="1" stop-color="#a1d089" stop-opacity="0"/>
    </radialGradient>
    <filter id="shadow" x="-30%" y="-30%" width="160%" height="160%">
      <feDropShadow dx="0" dy="8" stdDeviation="8" flood-color="#000000" flood-opacity=".32"/>
    </filter>
  </defs>
  <rect x="7" y="7" width="306" height="206" rx="27" fill="url(#bg)" stroke="#8dbf72" stroke-width="4"/>
  <rect x="18" y="18" width="284" height="184" rx="21" fill="url(#glow)"/>
  <circle cx="70" cy="50" r="20" fill="#8dbf72" opacity=".08"/>
  <circle cx="257" cy="162" r="27" fill="#8dbf72" opacity=".07"/>
  <ellipse cx="160" cy="180" rx="86" ry="12" fill="#051019" opacity=".42"/>
  <g filter="url(#shadow)">
    
      <ellipse cx="160" cy="128" rx="52" ry="38" fill="#5a8b46"/>
      <ellipse cx="160" cy="128" rx="40" ry="29" fill="#749f58"/>
      <circle cx="215" cy="127" r="16" fill="#86b06a"/>
      <circle cx="219" cy="123" r="2.2" fill="#1d2a20"/>
      <path d="M126,157 l-12,18 M146,162 l-7,17 M175,162 l8,17 M196,156 l12,18" stroke="#86b06a" stroke-width="6" stroke-linecap="round"/>
      <path d="M111,121 q-24,-4 -31,-18" stroke="#86b06a" stroke-width="8" fill="none" stroke-linecap="round"/>
      <path d="M138,114 h44 M145,100 q15,10 30,0 M145,128 q15,10 30,0 M145,142 q15,10 30,0" stroke="#4d6f3b" stroke-width="3" fill="none" stroke-linecap="round"/>
    
  </g>
</svg>