<svg xmlns="http://www.w3.org/2000/svg" width="320" height="220" viewBox="0 0 320 220">
  <defs>
    <linearGradient id="bg" x1="0" y1="0" x2="1" y2="1">
      <stop offset="0" stop-color="#112839"/>
      <stop offset="1" stop-color="#081720"/>
    </linearGradient>
    <radialGradient id="glow" cx="50%" cy="40%" r="60%">
      <stop offset="0" stop-color="#80a9ee" stop-opacity=".22"/>
      <stop offset="1" stop-color="#80a9ee" stop-opacity="0"/>
    </radialGradient>
    <filter id="shadow" x="-30%" y="-30%" width="160%" height="160%">
      <feDropShadow dx="0" dy="8" stdDeviation="8" flood-color="#000000" flood-opacity=".32"/>
    </filter>
  </defs>
  <rect x="7" y="7" width="306" height="206" rx="27" fill="url(#bg)" stroke="#6d97e0" stroke-width="4"/>
  <rect x="18" y="18" width="284" height="184" rx="21" fill="url(#glow)"/>
  <circle cx="70" cy="50" r="20" fill="#6d97e0" opacity=".08"/>
  <circle cx="257" cy="162" r="27" fill="#6d97e0" opacity=".07"/>
  <ellipse cx="160" cy="180" rx="86" ry="12" fill="#051019" opacity=".42"/>
  <g filter="url(#shadow)">
    
      <path d="M80,134 q32,-42 106,-38 q48,4 71,25 q-10,14 -34,17 q-17,18 -54,23 q-47,6 -86,-7 q-14,-5 -27,-13 q10,-5 24,-7 z" fill="#6486c3"/>
      <path d="M112,118 q10,-28 28,-39" stroke="#87a3d8" stroke-width="6" fill="none" stroke-linecap="round"/>
      <path d="M96,132 q-22,6 -29,22" stroke="#6486c3" stroke-width="8" fill="none" stroke-linecap="round"/>
      <path d="M102,129 q-24,-10 -29,-28" stroke="#6486c3" stroke-width="8" fill="none" stroke-linecap="round"/>
      <circle cx="205" cy="115" r="2.5" fill="#1c2d3b"/>
      <path d="M213,124 q10,6 19,1" stroke="#1c2d3b" stroke-width="2.2" fill="none" stroke-linecap="round"/>
    
  </g>
</svg>